#N canvas 0 0 1362 686 10;
#X declare -lib mrpeach;
#X obj 360 47 soundfiler;
#X obj 360 74 expr 44100 / $f1;
#X obj 360 130 phasor~;
#X obj 360 175 *~;
#X obj 359 218 tabread4~ array1;
#X obj 441 462 line~;
#X msg 441 436 \$1 20;
#X floatatom 441 409 5 0 0 0 - - -;
#X obj 359 480 *~;
#X floatatom 360 104 10 0 0 0 - - -;
#X obj 431 47 table array1;
#X obj 549 47 soundfiler;
#X obj 549 74 expr 44100 / $f1;
#X obj 549 130 phasor~;
#X obj 549 174 *~;
#X obj 631 440 line~;
#X msg 631 414 \$1 20;
#X floatatom 631 387 5 0 0 0 - - -;
#X obj 549 456 *~;
#X obj 709 651 dac~;
#X floatatom 549 104 10 0 0 0 - - -;
#X obj 716 575 *~;
#X obj 732 534 line~;
#X msg 732 508 \$1 20;
#X obj 548 219 tabread4~ array2;
#X obj 1076 527 vsl 15 128 0 1 0 0 empty empty empty 0 -9 0 10 -99865
-262144 -262144 10900 1;
#X obj 773 44 bng 15 250 50 0 empty empty empty 17 7 0 10 -258113 -1
-1;
#X obj 771 143 t b b;
#X msg 744 173 0;
#X msg 815 173 0;
#X text 766 26 Stop;
#X obj 748 91 hsl 128 15 -0.2 0.2 0 0 empty empty empty -2 -8 0 10
-262144 -1 -1 7425 1;
#X floatatom 745 112 10 0 0 0 - - -;
#X text 805 67 Playback speed;
#X obj 1211 527 vsl 15 128 0 1 0 0 empty empty empty 0 -9 0 10 -162280
-1 -1 11000 1;
#X obj 1168 527 vsl 15 128 0 1 0 0 empty empty empty 0 -9 0 10 -162280
-1 -1 10700 1;
#X obj 744 44 bng 15 250 50 0 empty empty empty 17 7 0 10 -4034 -1
-1;
#X text 737 26 Play;
#X obj 917 48 soundfiler;
#X obj 917 75 expr 44100 / $f1;
#X obj 917 134 phasor~;
#X obj 917 174 *~;
#X obj 1001 428 line~;
#X msg 1001 402 \$1 20;
#X floatatom 1001 375 5 0 0 0 - - -;
#X obj 918 446 *~;
#X floatatom 917 106 10 0 0 0 - - -;
#X obj 1255 527 vsl 15 128 0 1 0 0 empty empty empty 0 -9 0 10 -162280
-1 -1 11600 1;
#X obj 988 48 table array3;
#X obj 916 216 tabread4~ array3;
#X obj 621 47 table array2;
#X obj 1137 50 soundfiler;
#X obj 1137 77 expr 44100 / $f1;
#X obj 1137 136 phasor~;
#X obj 1137 176 *~;
#X obj 1222 429 line~;
#X msg 1222 403 \$1 20;
#X floatatom 1222 376 5 0 0 0 - - -;
#X obj 1140 447 *~;
#X floatatom 1137 108 10 0 0 0 - - -;
#X obj 1299 527 vsl 15 128 0 1 0 0 empty empty empty 0 -9 0 10 -162280
-1 -1 11400 1;
#X obj 1208 50 table array4;
#X obj 1136 218 tabread4~ array4;
#X msg 360 22 read -resize drums.wav array1;
#X msg 549 23 read -resize bass.wav array2;
#X msg 917 24 read -resize synths.wav array3;
#X msg 1137 26 read -resize guits.wav array4;
#X msg 745 69 0.0338542;
#X obj 548 284 hip~ 5;
#X text 570 244 High pass filter;
#X obj 549 389 lop~ 20000;
#X text 570 346 Low pass filter;
#X obj 575 264 hsl 128 15 0 10000 0 0 empty empty empty -2 -8 0 10
-262130 -1 -1 0 1;
#X obj 576 363 hsl 128 15 0 10000 0 0 empty empty empty -2 -8 0 10
-204800 -1 -1 12700 1;
#X obj 358 284 hip~ 5;
#X text 381 244 High pass filter;
#X obj 359 388 lop~ 20000;
#X text 379 343 Low pass filter;
#X obj 386 264 hsl 128 15 0 10000 0 0 empty empty empty -2 -8 0 10
-262130 -1 -1 0 1;
#X obj 385 360 hsl 128 15 0 10000 0 0 empty empty empty -2 -8 0 10
-204800 -1 -1 12700 1;
#X obj 917 277 hip~ 5;
#X text 937 237 High pass filter;
#X obj 918 375 lop~ 20000;
#X text 935 333 Low pass filter;
#X obj 942 257 hsl 128 15 0 10000 0 0 empty empty empty -2 -8 0 10
-262130 -1 -1 0 1;
#X obj 941 350 hsl 128 15 0 10000 0 0 empty empty empty -2 -8 0 10
-204800 -1 -1 12700 1;
#X obj 1138 273 hip~ 5;
#X text 1163 462 High pass filter;
#X obj 1139 376 lop~ 20000;
#X text 1158 334 Low pass filter;
#X obj 1165 253 hsl 128 15 0 10000 0 0 empty empty empty -2 -8 0 10
-262130 -1 -1 0 1;
#X obj 1164 351 hsl 128 15 0 10000 0 0 empty empty empty -2 -8 0 10
-204800 -1 -1 12700 1;
#X obj 1014 533 vu 15 120 empty empty -1 -8 0 10 -66577 -1 1 0;
#X obj 758 605 env~;
#X obj 814 605 - 100;
#X obj 795 4 loadbang;
#X obj 28 88 print osc;
#X obj 16 51 dumpOSC 56789;
#X obj 16 17 import mrpeach;
#X floatatom 173 238 5 0 0 0 - - -;
#X floatatom 133 236 5 0 0 0 - - -;
#X msg 135 189 \$1;
#X msg 168 188 \$2;
#X obj 16 126 routeOSC /ori /touch /acc;
#X floatatom 54 232 5 0 0 0 - - -;
#X floatatom 14 232 5 0 0 0 - - -;
#X msg 16 183 \$1;
#X msg 49 182 \$2;
#X floatatom 94 231 5 0 0 0 - - -;
#X msg 89 181 \$3;
#X floatatom 252 235 5 0 0 0 - - -;
#X floatatom 214 235 5 0 0 0 - - -;
#X msg 214 186 \$1;
#X msg 247 185 \$2;
#X floatatom 292 234 5 0 0 0 - - -;
#X msg 287 184 \$3;
#X obj 186 406 adc~;
#X obj 185 436 *~;
#X obj 184 463 freeverb~;
#X obj 124 329 hsl 30 20 0 1 0 0 empty empty empty -2 -8 0 10 -262144
-1 -1 0 1;
#X msg 121 356 wet \$1;
#X obj 19 323 hsl 30 20 0 1 0 0 empty empty empty -2 -8 0 10 -262144
-1 -1 0 1;
#X obj 222 327 hsl 30 20 0 1 0 0 empty empty empty -2 -8 0 10 -262144
-1 -1 0 1;
#X msg 16 350 dry \$1;
#X msg 219 356 roomsize \$1;
#X text 122 16 import library to receive osc;
#X text 118 49 receive osc from port 56789;
#X obj 219 296 expr 1-$f1/1500;
#X obj 121 294 expr $f1/1000;
#X obj 16 293 expr 1-$f1/1000;
#X obj 1122 527 vsl 15 128 0 1 0 0 empty empty empty 0 -9 0 10 -162280
-1 -1 0 1;
#X obj 562 644 writesf~ 2;
#X msg 172 588 start;
#X msg 216 588 stop;
#X msg 245 566 open mysong.wav;
#X text 92 88 print osc in console to check if dump works;
#X text 75 261 uses only touch for now;
#X obj 298 460 line~;
#X msg 298 434 \$1 20;
#X floatatom 298 407 5 0 0 0 - - -;
#X obj 573 308 loadbang;
#X msg 573 331 10000;
#X obj 382 309 loadbang;
#X msg 382 331 10000;
#X obj 938 298 loadbang;
#X msg 938 321 10000;
#X obj 1161 295 loadbang;
#X msg 1161 319 10000;
#X obj 172 567 bng 15 250 50 0 empty empty empty 17 7 0 10 -4034 -1
-1;
#X obj 200 567 bng 15 250 50 0 empty empty empty 17 7 0 10 -258113
-1 -1;
#X text 240 547 open file for recording;
#X text 192 572;
#X text 161 549 Start;
#X text 198 549 Stop;
#X text 1063 504 master;
#X text 1160 504 drums;
#X text 1206 504 bass;
#X text 1247 504 synth;
#X text 1290 504 guits;
#X text 1114 504 voice;
#X text 792 299;
#X text 161 532 RECORDING;
#X text 735 195 stop and reset phase;
#X text 1162 236 High pass filter;
#X connect 0 0 1 0;
#X connect 0 0 3 1;
#X connect 1 0 9 0;
#X connect 2 0 3 0;
#X connect 3 0 4 0;
#X connect 4 0 74 0;
#X connect 5 0 8 1;
#X connect 6 0 5 0;
#X connect 7 0 6 0;
#X connect 8 0 21 0;
#X connect 9 0 2 0;
#X connect 11 0 12 0;
#X connect 11 0 14 1;
#X connect 12 0 20 0;
#X connect 13 0 14 0;
#X connect 14 0 24 0;
#X connect 15 0 18 1;
#X connect 16 0 15 0;
#X connect 17 0 16 0;
#X connect 18 0 21 0;
#X connect 20 0 13 0;
#X connect 21 0 19 0;
#X connect 21 0 19 1;
#X connect 21 0 93 0;
#X connect 21 0 131 0;
#X connect 21 0 131 1;
#X connect 22 0 21 1;
#X connect 23 0 22 0;
#X connect 24 0 68 0;
#X connect 25 0 23 0;
#X connect 26 0 27 0;
#X connect 27 0 28 0;
#X connect 27 1 29 0;
#X connect 28 0 2 1;
#X connect 28 0 13 1;
#X connect 28 0 40 1;
#X connect 28 0 53 1;
#X connect 29 0 2 0;
#X connect 29 0 13 0;
#X connect 29 0 40 0;
#X connect 29 0 53 0;
#X connect 31 0 32 0;
#X connect 32 0 13 0;
#X connect 32 0 2 0;
#X connect 32 0 40 0;
#X connect 32 0 53 0;
#X connect 34 0 17 0;
#X connect 35 0 7 0;
#X connect 36 0 67 0;
#X connect 38 0 39 0;
#X connect 38 0 41 1;
#X connect 39 0 46 0;
#X connect 40 0 41 0;
#X connect 41 0 49 0;
#X connect 42 0 45 1;
#X connect 43 0 42 0;
#X connect 44 0 43 0;
#X connect 45 0 21 0;
#X connect 46 0 40 0;
#X connect 47 0 44 0;
#X connect 49 0 80 0;
#X connect 51 0 52 0;
#X connect 51 0 54 1;
#X connect 52 0 59 0;
#X connect 53 0 54 0;
#X connect 54 0 62 0;
#X connect 55 0 58 1;
#X connect 56 0 55 0;
#X connect 57 0 56 0;
#X connect 58 0 21 0;
#X connect 59 0 53 0;
#X connect 60 0 57 0;
#X connect 62 0 86 0;
#X connect 63 0 0 0;
#X connect 64 0 11 0;
#X connect 65 0 38 0;
#X connect 66 0 51 0;
#X connect 67 0 31 0;
#X connect 68 0 70 0;
#X connect 70 0 18 0;
#X connect 72 0 68 1;
#X connect 73 0 70 1;
#X connect 74 0 76 0;
#X connect 76 0 8 0;
#X connect 78 0 74 1;
#X connect 79 0 76 1;
#X connect 80 0 82 0;
#X connect 82 0 45 0;
#X connect 84 0 80 1;
#X connect 85 0 82 1;
#X connect 86 0 88 0;
#X connect 88 0 58 0;
#X connect 90 0 86 1;
#X connect 91 0 88 1;
#X connect 93 0 94 0;
#X connect 94 0 92 1;
#X connect 95 0 64 0;
#X connect 95 0 63 0;
#X connect 95 0 65 0;
#X connect 95 0 66 0;
#X connect 97 0 96 0;
#X connect 97 0 103 0;
#X connect 99 0 127 0;
#X connect 100 0 128 0;
#X connect 100 0 129 0;
#X connect 101 0 100 0;
#X connect 102 0 99 0;
#X connect 103 0 106 0;
#X connect 103 0 107 0;
#X connect 103 0 109 0;
#X connect 103 1 101 0;
#X connect 103 1 102 0;
#X connect 103 2 112 0;
#X connect 103 2 113 0;
#X connect 103 2 115 0;
#X connect 106 0 105 0;
#X connect 107 0 104 0;
#X connect 109 0 108 0;
#X connect 112 0 111 0;
#X connect 113 0 110 0;
#X connect 115 0 114 0;
#X connect 116 0 117 0;
#X connect 117 0 118 0;
#X connect 118 0 21 0;
#X connect 118 0 21 1;
#X connect 119 0 120 0;
#X connect 120 0 118 0;
#X connect 121 0 123 0;
#X connect 122 0 124 0;
#X connect 123 0 118 0;
#X connect 124 0 118 0;
#X connect 127 0 122 0;
#X connect 128 0 119 0;
#X connect 129 0 121 0;
#X connect 130 0 139 0;
#X connect 132 0 131 0;
#X connect 133 0 131 0;
#X connect 134 0 131 0;
#X connect 137 0 117 1;
#X connect 138 0 137 0;
#X connect 139 0 138 0;
#X connect 140 0 141 0;
#X connect 141 0 73 0;
#X connect 142 0 143 0;
#X connect 143 0 79 0;
#X connect 144 0 145 0;
#X connect 145 0 85 0;
#X connect 146 0 147 0;
#X connect 147 0 91 0;
#X connect 148 0 132 0;
#X connect 149 0 133 0;
