#N canvas -8 -8 1366 686 10;
#X obj 125 71 soundfiler;
#X obj 126 143 expr 44100 / $f1;
#X obj 126 256 phasor~;
#X obj 126 296 *~;
#X obj 125 333 tabread4~ array1;
#X obj 208 419 line~;
#X msg 208 393 \$1 20;
#X floatatom 208 366 5 0 0 0 - - -, f 5;
#X obj 128 440 *~;
#X text 251 366 volume;
#X floatatom 126 197 10 0 0 0 - - -, f 10;
#X obj 151 107 table array1;
#X obj 373 69 soundfiler;
#X obj 374 141 expr 44100 / $f1;
#X obj 374 254 phasor~;
#X obj 374 294 *~;
#X obj 456 417 line~;
#X msg 456 391 \$1 20;
#X floatatom 456 364 5 0 0 0 - - -, f 5;
#X obj 376 433 *~;
#X obj 737 732 dac~;
#X text 501 363 volume;
#X floatatom 374 195 10 0 0 0 - - -, f 10;
#X obj 744 628 *~;
#X obj 754 565 line~;
#X msg 754 539 \$1 20;
#X obj 373 331 tabread4~ array2;
#X obj 756 376 vsl 15 128 0 1 0 0 empty empty empty 0 -9 0 10 -99865
-262144 -262144 12700 1;
#X obj 742 242 bng 15 250 50 0 empty empty empty 17 7 0 10 -258113
-1 -1;
#X obj 742 279 t b b;
#X msg 715 311 0;
#X msg 780 314 0;
#X text 738 224 Stop;
#X obj 696 163 hsl 128 15 -0.2 0.2 0 0 empty empty empty -2 -8 0 10
-262144 -1 -1 0 1;
#X floatatom 693 190 10 0 0 0 - - -, f 10;
#X text 753 132 Playback speed;
#X obj 549 323 vsl 15 128 0 1 0 0 empty empty empty 0 -9 0 10 -162280
-1 -1 11500 1;
#X obj 300 322 vsl 15 128 0 1 0 0 empty empty empty 0 -9 0 10 -162280
-1 -1 9000 1;
#X obj 745 82 bng 15 250 50 0 empty empty empty 17 7 0 10 -4034 -1
-1;
#X text 742 62 Play;
#X text 722 358 Master volume;
#X obj 919 68 soundfiler;
#X obj 920 140 expr 44100 / $f1;
#X obj 920 253 phasor~;
#X obj 920 293 *~;
#X obj 1002 416 line~;
#X msg 1002 390 \$1 20;
#X floatatom 1002 363 5 0 0 0 - - -, f 5;
#X obj 919 442 *~;
#X text 1045 363 volume;
#X floatatom 920 194 10 0 0 0 - - -, f 10;
#X obj 1096 319 vsl 15 128 0 1 0 0 empty empty empty 0 -9 0 10 -162280
-1 -1 12700 1;
#X obj 945 104 table array3;
#X obj 919 330 tabread4~ array3;
#X obj 400 105 table array2;
#X obj 1184 67 soundfiler;
#X obj 1185 139 expr 44100 / $f1;
#X obj 1185 252 phasor~;
#X obj 1185 292 *~;
#X obj 1267 415 line~;
#X msg 1267 389 \$1 20;
#X floatatom 1267 362 5 0 0 0 - - -, f 5;
#X obj 1185 443 *~;
#X text 1310 362 volume;
#X floatatom 1185 193 10 0 0 0 - - -, f 10;
#X obj 1361 318 vsl 15 128 0 1 0 0 empty empty empty 0 -9 0 10 -162280
-1 -1 12700 1;
#X obj 1210 103 table array4;
#X obj 1184 329 tabread4~ array4;
#X msg 126 37 read -resize drums.wav array1;
#X msg 374 36 read -resize bass.wav array2;
#X msg 920 35 read -resize synths.wav array3;
#X msg 1185 34 read -resize guits.wav array4;
#X msg 693 134 0.0338542;
#X obj 375 506 hip~ 5;
#X text 395 466 High pass filter;
#X obj 376 567 lop~ 20000;
#X text 393 525 Low pass filter;
#X obj 400 486 hsl 128 15 0 10000 0 0 empty empty empty -2 -8 0 10
-262130 -1 -1 0 1;
#X obj 399 542 hsl 128 15 0 10000 0 0 empty empty empty -2 -8 0 10
-204800 -1 -1 0 1;
#X obj 130 507 hip~ 5;
#X text 150 467 High pass filter;
#X obj 131 568 lop~ 20000;
#X text 148 526 Low pass filter;
#X obj 155 487 hsl 128 15 0 10000 0 0 empty empty empty -2 -8 0 10
-262130 -1 -1 0 1;
#X obj 154 543 hsl 128 15 0 10000 0 0 empty empty empty -2 -8 0 10
-204800 -1 -1 0 1;
#X obj 920 511 hip~ 5;
#X text 940 471 High pass filter;
#X obj 921 572 lop~ 20000;
#X text 938 530 Low pass filter;
#X obj 945 491 hsl 128 15 0 10000 0 0 empty empty empty -2 -8 0 10
-262130 -1 -1 0 1;
#X obj 944 547 hsl 128 15 0 10000 0 0 empty empty empty -2 -8 0 10
-204800 -1 -1 0 1;
#X obj 1188 498 hip~ 5;
#X text 1208 458 High pass filter;
#X obj 1189 559 lop~ 20000;
#X text 1206 517 Low pass filter;
#X obj 1213 478 hsl 128 15 0 10000 0 0 empty empty empty -2 -8 0 10
-262130 -1 -1 0 1;
#X obj 1212 534 hsl 128 15 0 10000 0 0 empty empty empty -2 -8 0 10
-204800 -1 -1 0 1;
#X obj 907 638 vu 15 120 empty empty -1 -8 0 10 -66577 -1 1 0;
#X obj 787 663 env~;
#X obj 852 687 - 100;
#X floatatom 505 190 5 0 0 0 - - -, f 5;
#X floatatom 572 195 5 0 0 0 - - -, f 5;
#X floatatom 608 162 5 0 0 0 - - -, f 5;
#X obj 535 158 midiin;
#X obj 715 1 loadbang;
#X connect 0 0 1 0;
#X connect 0 0 3 1;
#X connect 1 0 10 0;
#X connect 2 0 3 0;
#X connect 3 0 4 0;
#X connect 4 0 8 0;
#X connect 5 0 8 1;
#X connect 6 0 5 0;
#X connect 7 0 6 0;
#X connect 8 0 79 0;
#X connect 10 0 2 0;
#X connect 12 0 13 0;
#X connect 12 0 15 1;
#X connect 13 0 22 0;
#X connect 14 0 15 0;
#X connect 15 0 26 0;
#X connect 16 0 19 1;
#X connect 17 0 16 0;
#X connect 18 0 17 0;
#X connect 19 0 73 0;
#X connect 22 0 14 0;
#X connect 23 0 20 0;
#X connect 23 0 20 1;
#X connect 23 0 98 0;
#X connect 24 0 23 1;
#X connect 25 0 24 0;
#X connect 26 0 19 0;
#X connect 27 0 25 0;
#X connect 28 0 29 0;
#X connect 29 0 30 0;
#X connect 29 1 31 0;
#X connect 30 0 2 1;
#X connect 30 0 14 1;
#X connect 30 0 43 1;
#X connect 30 0 57 1;
#X connect 31 0 2 0;
#X connect 31 0 14 0;
#X connect 31 0 43 0;
#X connect 31 0 57 0;
#X connect 33 0 34 0;
#X connect 34 0 14 0;
#X connect 34 0 2 0;
#X connect 34 0 43 0;
#X connect 34 0 57 0;
#X connect 36 0 18 0;
#X connect 37 0 7 0;
#X connect 38 0 72 0;
#X connect 41 0 42 0;
#X connect 41 0 44 1;
#X connect 42 0 50 0;
#X connect 43 0 44 0;
#X connect 44 0 53 0;
#X connect 45 0 48 1;
#X connect 46 0 45 0;
#X connect 47 0 46 0;
#X connect 48 0 85 0;
#X connect 50 0 43 0;
#X connect 51 0 47 0;
#X connect 53 0 48 0;
#X connect 55 0 56 0;
#X connect 55 0 58 1;
#X connect 56 0 64 0;
#X connect 57 0 58 0;
#X connect 58 0 67 0;
#X connect 59 0 62 1;
#X connect 60 0 59 0;
#X connect 61 0 60 0;
#X connect 62 0 91 0;
#X connect 64 0 57 0;
#X connect 65 0 61 0;
#X connect 67 0 62 0;
#X connect 68 0 0 0;
#X connect 69 0 12 0;
#X connect 70 0 41 0;
#X connect 71 0 55 0;
#X connect 72 0 33 0;
#X connect 73 0 75 0;
#X connect 75 0 23 0;
#X connect 77 0 73 1;
#X connect 78 0 75 1;
#X connect 79 0 81 0;
#X connect 81 0 23 0;
#X connect 83 0 79 1;
#X connect 84 0 81 1;
#X connect 85 0 87 0;
#X connect 87 0 23 0;
#X connect 89 0 85 1;
#X connect 90 0 87 1;
#X connect 91 0 93 0;
#X connect 93 0 23 0;
#X connect 95 0 91 1;
#X connect 96 0 93 1;
#X connect 98 0 99 0;
#X connect 99 0 97 1;
#X connect 103 0 100 0;
#X connect 103 1 101 0;
#X connect 104 0 69 0;
#X connect 104 0 68 0;
#X connect 104 0 70 0;
#X connect 104 0 71 0;
